<svg xmlns="http://www.w3.org/2000/svg" viewBox="0 0 475 88">
  <g fill="#fff" fill-rule="evenodd">
    <path d="M298.65 37l4.61-27.144h6.983l5.436 14.472 5.398-14.472h6.984L332.67 37h-7.02l-2.34-15.624L316.902 37h-2.808l-6.084-15.624L305.67 37h-7.02zm43.894-9.288c0 .6.107 1.158.324 1.674.216.516.51.966.882 1.35.372.384.815.684 1.332.9.516.216 1.073.324 1.674.324.576 0 1.12-.108 1.638-.324.516-.216.96-.516 1.332-.9.372-.384.67-.828.9-1.332.228-.504.342-1.044.342-1.62 0-.576-.114-1.122-.343-1.638-.228-.516-.527-.966-.9-1.35-.372-.384-.815-.684-1.332-.9-.516-.216-1.06-.324-1.637-.324-.6 0-1.158.108-1.674.324-.517.216-.96.516-1.332.9-.373.384-.666.822-.882 1.314-.217.492-.324 1.026-.324 1.602zm8.208-9.18h6.55V37h-6.55v-2.052c-1.393 1.752-3.276 2.628-5.653 2.628-1.345 0-2.58-.246-3.71-.738-1.127-.492-2.11-1.182-2.95-2.07-.84-.888-1.494-1.932-1.963-3.132-.468-1.2-.702-2.508-.702-3.924 0-1.32.228-2.574.684-3.762.456-1.188 1.09-2.226 1.907-3.114.817-.888 1.788-1.59 2.916-2.106 1.13-.516 2.376-.774 3.744-.774 2.305 0 4.212.804 5.724 2.412v-1.836zm17.972 9.18c0 .6.108 1.158.324 1.674.217.516.51.966.882 1.35.373.384.816.684 1.332.9.517.216 1.074.324 1.674.324.577 0 1.122-.108 1.638-.324.517-.216.96-.516 1.332-.9.373-.384.672-.828.9-1.332.23-.504.342-1.044.342-1.62 0-.576-.113-1.122-.342-1.638-.228-.516-.527-.966-.9-1.35-.372-.384-.815-.684-1.332-.9-.516-.216-1.06-.324-1.638-.324-.576 0-1.12.108-1.638.324-.516.216-.96.516-1.332.9-.372.384-.67.822-.9 1.314-.228.492-.342 1.026-.342 1.602zm8.208-20.592h6.552V37h-6.55l-.002-2.052c-1.392 1.752-3.275 2.628-5.652 2.628-1.344 0-2.58-.252-3.707-.756-1.13-.504-2.112-1.2-2.952-2.088-.84-.888-1.493-1.932-1.962-3.132-.468-1.2-.702-2.496-.702-3.888 0-1.32.222-2.574.666-3.762.445-1.188 1.074-2.226 1.89-3.114.817-.888 1.794-1.59 2.934-2.106 1.14-.516 2.394-.774 3.762-.774 2.305 0 4.212.804 5.724 2.412V7.12zm25.425 17.964c-.216-.912-.66-1.644-1.332-2.196-.672-.552-1.487-.828-2.447-.828-1.01 0-1.83.264-2.466.792-.637.528-1.038 1.272-1.206 2.232h7.452zm-7.632 3.78c0 2.808 1.32 4.212 3.96 4.212 1.417 0 2.484-.576 3.205-1.728h6.3c-1.273 4.224-4.452 6.336-9.54 6.336-1.56 0-2.988-.234-4.284-.702-1.297-.468-2.406-1.134-3.33-1.998-.925-.864-1.638-1.896-2.142-3.096-.505-1.2-.756-2.544-.756-4.032 0-1.536.24-2.922.72-4.158.48-1.236 1.163-2.286 2.052-3.15.888-.864 1.96-1.53 3.222-1.998 1.26-.468 2.68-.702 4.266-.702 1.56 0 2.963.234 4.212.702 1.248.468 2.303 1.146 3.168 2.034.864.888 1.523 1.974 1.98 3.258.456 1.284.684 2.73.684 4.338v.684h-13.716zm46.278-1.044c0-.576-.107-1.122-.323-1.638-.217-.516-.516-.966-.9-1.35-.385-.384-.828-.69-1.332-.918-.505-.228-1.056-.342-1.656-.342-.577 0-1.116.108-1.62.324-.505.216-.942.516-1.315.9-.372.384-.67.834-.9 1.35-.228.516-.34 1.062-.34 1.638-.002.576.106 1.116.322 1.62.216.504.515.942.9 1.314.384.372.833.672 1.35.9.516.228 1.06.342 1.637.342s1.116-.108 1.62-.324c.505-.216.942-.516 1.315-.9.372-.384.67-.828.9-1.332.228-.504.342-1.032.342-1.584zm-8.207-20.7v13.248c1.536-1.608 3.455-2.412 5.76-2.412 1.368 0 2.62.258 3.762.774 1.14.516 2.11 1.212 2.916 2.088.804.876 1.433 1.908 1.89 3.096.456 1.188.684 2.454.684 3.798 0 1.368-.234 2.652-.702 3.852-.47 1.2-1.122 2.244-1.963 3.132-.84.888-1.83 1.59-2.97 2.106-1.14.516-2.37.774-3.69.774-2.4 0-4.295-.876-5.688-2.628V37h-6.516V7.12h6.516zm25.39 27.36l-8.93-15.948h7.56L461.75 28l4.787-9.468h7.488l-14.832 27.684h-7.308l6.3-11.736zM241.612 55.902l-3.322 1.97c-.62-1.08-1.213-1.782-1.776-2.11-.586-.375-1.34-.563-2.267-.563-1.137 0-2.08.32-2.83.966-.75.633-1.125 1.43-1.125 2.39 0 1.325.984 2.39 2.953 3.2l2.707 1.107c2.203.89 3.814 1.978 4.834 3.26 1.02 1.284 1.53 2.857 1.53 4.72 0 2.497-.833 4.56-2.497 6.188-1.677 1.642-3.757 2.462-6.24 2.462-2.357 0-4.302-.697-5.837-2.092-1.512-1.394-2.455-3.357-2.83-5.888l4.148-.914c.19 1.593.517 2.695.986 3.304.843 1.172 2.074 1.758 3.69 1.758 1.278 0 2.34-.428 3.183-1.283.842-.856 1.264-1.94 1.264-3.252 0-.527-.073-1.01-.22-1.45-.146-.44-.374-.844-.685-1.213-.31-.37-.713-.715-1.205-1.037-.492-.322-1.078-.63-1.758-.923l-2.62-1.09c-3.714-1.57-5.57-3.867-5.57-6.89 0-2.04.778-3.745 2.337-5.116 1.558-1.383 3.498-2.074 5.818-2.074 3.13 0 5.572 1.523 7.33 4.57zm14.586-.193V79h-4.096V55.71h-6.24v-3.85h16.558v3.85h-6.222zm14.92-3.85v16.347c0 2.332.38 4.037 1.142 5.115 1.137 1.56 2.736 2.338 4.8 2.338 2.073 0 3.678-.78 4.815-2.338.762-1.043 1.143-2.748 1.143-5.115V51.86h4.095V69.33c0 2.86-.89 5.215-2.67 7.066-2.005 2.063-4.466 3.094-7.384 3.094-2.92 0-5.374-1.03-7.367-3.094-1.78-1.85-2.67-4.207-2.67-7.066V51.86h4.094zM294.56 79V51.86h5.696c2.73 0 4.886.27 6.468.808 1.7.527 3.24 1.424 4.623 2.69 2.8 2.554 4.2 5.912 4.2 10.072 0 4.172-1.458 7.547-4.376 10.125-1.465 1.29-3 2.185-4.606 2.69-1.5.503-3.627.755-6.38.755h-5.626zm4.096-3.85h1.846c1.84 0 3.37-.193 4.588-.58 1.218-.41 2.32-1.06 3.304-1.95 2.016-1.84 3.024-4.237 3.024-7.19 0-2.977-.996-5.39-2.99-7.243-1.792-1.652-4.434-2.478-7.926-2.478h-1.846v19.44zm27.084-23.29V79h-4.096V51.86h4.096zm6.113 13.447c0-3.82 1.4-7.102 4.2-9.844 2.79-2.742 6.14-4.113 10.056-4.113 3.868 0 7.184 1.382 9.95 4.148 2.777 2.766 4.166 6.088 4.166 9.967 0 3.902-1.395 7.213-4.184 9.93-2.8 2.732-6.18 4.097-10.142 4.097-3.504 0-6.65-1.213-9.44-3.638-3.07-2.684-4.605-6.2-4.605-10.547zm4.13.052c0 3 1.008 5.466 3.024 7.4 2.003 1.933 4.317 2.9 6.942 2.9 2.848 0 5.25-.984 7.207-2.953 1.956-1.992 2.935-4.418 2.935-7.277 0-2.895-.967-5.32-2.9-7.278-1.922-1.968-4.3-2.953-7.137-2.953-2.824 0-5.21.984-7.155 2.952-1.945 1.946-2.917 4.348-2.917 7.207zm47.084 9.79h13.024V79h-19.758l13.325-23.29h-11.144v-3.85h17.877L383.07 75.15zm33.727-19.44h-10.88v6.52h10.564v3.85h-10.564v9.07h10.88V79h-14.975V51.86h14.977v3.85zm15.517 11.724L440.717 79h-5.01l-7.752-11.11h-.738V79h-4.096V51.86h4.8c3.586 0 6.176.673 7.77 2.02 1.757 1.5 2.636 3.48 2.636 5.942 0 1.922-.55 3.574-1.652 4.957-1.102 1.382-2.555 2.267-4.36 2.654zm-5.097-3.112h1.3c3.88 0 5.82-1.482 5.82-4.447 0-2.777-1.888-4.166-5.66-4.166h-1.46v8.612zm16.554.985c0-3.82 1.4-7.102 4.202-9.844 2.79-2.742 6.14-4.113 10.055-4.113 3.867 0 7.183 1.382 9.95 4.148 2.776 2.766 4.165 6.088 4.165 9.967 0 3.902-1.394 7.213-4.183 9.93-2.802 2.732-6.183 4.097-10.144 4.097-3.504 0-6.65-1.213-9.44-3.638-3.07-2.684-4.605-6.2-4.605-10.547zm4.132.052c0 3 1.008 5.466 3.023 7.4 2.004 1.933 4.32 2.9 6.944 2.9 2.846 0 5.25-.984 7.206-2.953 1.957-1.992 2.935-4.418 2.935-7.277 0-2.895-.965-5.32-2.9-7.278-1.92-1.968-4.3-2.953-7.136-2.953-2.824 0-5.21.984-7.154 2.952-1.945 1.946-2.918 4.348-2.918 7.207zM56.92 20.976l36.272 62.652 36.272-62.652M36.272 9L0 71.652h72.543M150.437 9l-36.27 62.652h72.54"/>
  </g>
</svg>
